<svg width="21" height="117" viewBox="0 0 21 117" fill="none" xmlns="http://www.w3.org/2000/svg">
<path d="M11.36 106.312C11.568 105.336 12.056 104.552 12.824 103.96C13.576 103.368 14.44 103.072 15.416 103.072C16.824 103.072 17.944 103.568 18.776 104.56C19.592 105.536 20 106.904 20 108.664L20 116.512L3.152 116.512L3.152 108.928C3.152 107.216 3.544 105.88 4.328 104.92C5.112 103.944 6.176 103.456 7.52 103.456C8.512 103.456 9.336 103.72 9.992 104.248C10.648 104.76 11.104 105.448 11.36 106.312ZM9.968 112.408L9.968 109.72C9.968 109.048 9.824 108.536 9.536 108.184C9.232 107.816 8.792 107.632 8.216 107.632C7.64 107.632 7.2 107.816 6.896 108.184C6.592 108.536 6.44 109.048 6.44 109.72L6.44 112.408L9.968 112.408ZM16.688 109.384C16.688 108.696 16.536 108.168 16.232 107.8C15.912 107.416 15.456 107.224 14.864 107.224C14.272 107.224 13.808 107.424 13.472 107.824C13.136 108.208 12.968 108.744 12.968 109.432L12.968 112.408L16.688 112.408L16.688 109.384ZM13.088 88.0677C13.472 88.0677 13.872 88.0917 14.288 88.1397L14.288 97.4277C15.12 97.3637 15.76 97.0997 16.208 96.6357C16.64 96.1557 16.856 95.5717 16.856 94.8837C16.856 93.8597 16.424 93.1477 15.56 92.7477L15.56 88.3797C16.44 88.6037 17.232 89.0117 17.936 89.6037C18.64 90.1797 19.192 90.9077 19.592 91.7877C19.992 92.6677 20.192 93.6517 20.192 94.7397C20.192 96.0517 19.912 97.2197 19.352 98.2437C18.792 99.2677 17.992 100.068 16.952 100.644C15.912 101.22 14.696 101.508 13.304 101.508C11.912 101.508 10.696 101.228 9.656 100.668C8.616 100.092 7.816 99.2917 7.256 98.2677C6.696 97.2437 6.416 96.0677 6.416 94.7397C6.416 93.4437 6.688 92.2917 7.232 91.2837C7.776 90.2757 8.552 89.4917 9.56 88.9317C10.568 88.3557 11.744 88.0677 13.088 88.0677ZM12.008 92.2677C11.304 92.2677 10.744 92.5077 10.328 92.9877C9.912 93.4677 9.704 94.0677 9.704 94.7877C9.704 95.4757 9.904 96.0597 10.304 96.5397C10.704 97.0037 11.272 97.2917 12.008 97.4037L12.008 92.2677ZM8.84 81.7986C8.104 81.3186 7.528 80.7186 7.112 79.9986C6.68 79.2786 6.464 78.4786 6.464 77.5986L10.808 77.5986L10.808 78.7266C10.808 79.7506 11.032 80.5186 11.48 81.0306C11.912 81.5426 12.68 81.7986 13.784 81.7986L20 81.7986L20 85.9026L6.608 85.9026L6.608 81.7986L8.84 81.7986ZM5.216 73.573C5.216 74.293 5.008 74.885 4.592 75.349C4.16 75.797 3.632 76.021 3.008 76.021C2.368 76.021 1.84 75.797 1.424 75.349C0.991997 74.885 0.775997 74.293 0.775997 73.573C0.775997 72.869 0.991997 72.293 1.424 71.845C1.84 71.381 2.368 71.149 3.008 71.149C3.632 71.149 4.16 71.381 4.592 71.845C5.008 72.293 5.216 72.869 5.216 73.573ZM6.608 71.533L20 71.533L20 75.637L6.608 75.637L6.608 71.533ZM13.304 69.3749C11.912 69.3749 10.696 69.0949 9.656 68.5349C8.616 67.9589 7.816 67.1669 7.256 66.1589C6.696 65.1349 6.416 63.9669 6.416 62.6549C6.416 60.9749 6.856 59.5749 7.736 58.4549C8.616 57.3189 9.856 56.5749 11.456 56.2229L11.456 60.5909C10.432 60.9589 9.92 61.6709 9.92 62.7269C9.92 63.4789 10.216 64.0789 10.808 64.5269C11.384 64.9749 12.216 65.1989 13.304 65.1989C14.392 65.1989 15.232 64.9749 15.824 64.5269C16.4 64.0789 16.688 63.4789 16.688 62.7269C16.688 61.6709 16.176 60.9589 15.152 60.5909L15.152 56.2229C16.72 56.5749 17.952 57.3189 18.848 58.4549C19.744 59.5909 20.192 60.9909 20.192 62.6549C20.192 63.9669 19.912 65.1349 19.352 66.1589C18.792 67.1669 17.992 67.9589 16.952 68.5349C15.912 69.0949 14.696 69.3749 13.304 69.3749ZM6.464 45.7956C6.464 44.2596 6.976 43.0276 8 42.0996C9.008 41.1716 10.4 40.7076 12.176 40.7076L20 40.7076L20 44.7876L12.728 44.7876C11.832 44.7876 11.136 45.0196 10.64 45.4836C10.144 45.9476 9.896 46.5716 9.896 47.3556C9.896 48.1396 10.144 48.7636 10.64 49.2276C11.136 49.6916 11.832 49.9236 12.728 49.9236L20 49.9236L20 54.0276L2.24 54.0276L2.24 49.9236L8.408 49.9236C7.816 49.5076 7.344 48.9396 6.992 48.2196C6.64 47.4996 6.464 46.6916 6.464 45.7956ZM16.52 30.3917L20 30.3917L20 32.4797C20 33.9677 19.64 35.1277 18.92 35.9597C18.184 36.7917 16.992 37.2077 15.344 37.2077L10.016 37.2077L10.016 38.8397L6.608 38.8397L6.608 37.2077L3.344 37.2077L3.344 33.1037L6.608 33.1037L6.608 30.4157L10.016 30.4157L10.016 33.1037L15.392 33.1037C15.792 33.1037 16.08 33.0077 16.256 32.8157C16.432 32.6237 16.52 32.3037 16.52 31.8557L16.52 30.3917ZM13.088 15.4817C13.472 15.4817 13.872 15.5057 14.288 15.5537L14.288 24.8417C15.12 24.7777 15.76 24.5137 16.208 24.0497C16.64 23.5697 16.856 22.9857 16.856 22.2977C16.856 21.2737 16.424 20.5617 15.56 20.1617L15.56 15.7937C16.44 16.0177 17.232 16.4257 17.936 17.0177C18.64 17.5937 19.192 18.3217 19.592 19.2017C19.992 20.0817 20.192 21.0657 20.192 22.1537C20.192 23.4657 19.912 24.6337 19.352 25.6577C18.792 26.6817 17.992 27.4817 16.952 28.0577C15.912 28.6337 14.696 28.9217 13.304 28.9217C11.912 28.9217 10.696 28.6417 9.656 28.0817C8.616 27.5057 7.816 26.7057 7.256 25.6817C6.696 24.6577 6.41599 23.4817 6.41599 22.1537C6.41599 20.8577 6.68799 19.7057 7.232 18.6977C7.776 17.6897 8.55199 16.9057 9.55999 16.3457C10.568 15.7697 11.744 15.4817 13.088 15.4817ZM12.008 19.6817C11.304 19.6817 10.744 19.9217 10.328 20.4017C9.912 20.8817 9.704 21.4817 9.704 22.2017C9.704 22.8897 9.904 23.4737 10.304 23.9537C10.704 24.4177 11.272 24.7057 12.008 24.8177L12.008 19.6817ZM6.46399 5.15669C6.46399 3.58869 6.97599 2.34069 7.99999 1.41269C9.00799 0.468686 10.4 -0.00331421 12.176 -0.00331429L20 -0.00331463L20 4.07669L12.728 4.07669C11.832 4.07669 11.136 4.30869 10.64 4.77269C10.144 5.23669 9.89599 5.86069 9.89599 6.64469C9.89599 7.42869 10.144 8.05269 10.64 8.51669C11.136 8.98069 11.832 9.21269 12.728 9.21269L20 9.21269L20 13.3167L6.60799 13.3167L6.60799 9.21269L8.38399 9.21269C7.79199 8.79669 7.32799 8.23669 6.99199 7.53269C6.63999 6.82869 6.46399 6.03669 6.46399 5.15669Z" fill="#232D32"/>
</svg>
