<svg width="21" height="124" viewBox="0 0 21 124" fill="none" xmlns="http://www.w3.org/2000/svg">
<path d="M20 114.92L13.64 118.424L13.64 119.408L20 119.408L20 123.512L3.152 123.512L3.152 116.624C3.152 115.296 3.384 114.168 3.848 113.24C4.312 112.296 4.952 111.592 5.768 111.128C6.568 110.664 7.464 110.432 8.456 110.432C9.576 110.432 10.576 110.752 11.456 111.392C12.336 112.016 12.96 112.944 13.328 114.176L20 110.288L20 114.92ZM10.736 119.408L10.736 116.864C10.736 116.112 10.552 115.552 10.184 115.184C9.816 114.8 9.296 114.608 8.624 114.608C7.984 114.608 7.48 114.8 7.112 115.184C6.744 115.552 6.56 116.112 6.56 116.864L6.56 119.408L10.736 119.408ZM13.088 95.2317C13.472 95.2317 13.872 95.2557 14.288 95.3037L14.288 104.592C15.12 104.528 15.76 104.264 16.208 103.8C16.64 103.32 16.856 102.736 16.856 102.048C16.856 101.024 16.424 100.312 15.56 99.9117L15.56 95.5437C16.44 95.7677 17.232 96.1757 17.936 96.7677C18.64 97.3437 19.192 98.0717 19.592 98.9517C19.992 99.8317 20.192 100.816 20.192 101.904C20.192 103.216 19.912 104.384 19.352 105.408C18.792 106.432 17.992 107.232 16.952 107.808C15.912 108.384 14.696 108.672 13.304 108.672C11.912 108.672 10.696 108.392 9.656 107.832C8.616 107.256 7.816 106.456 7.256 105.432C6.696 104.408 6.416 103.232 6.416 101.904C6.416 100.608 6.688 99.4557 7.232 98.4477C7.776 97.4397 8.552 96.6557 9.56 96.0957C10.568 95.5197 11.744 95.2317 13.088 95.2317ZM12.008 99.4317C11.304 99.4317 10.744 99.6717 10.328 100.152C9.912 100.632 9.704 101.232 9.704 101.952C9.704 102.64 9.904 103.224 10.304 103.704C10.704 104.168 11.272 104.456 12.008 104.568L12.008 99.4317ZM13.28 93.8827C11.904 93.8827 10.696 93.6267 9.656 93.1147C8.616 92.5867 7.816 91.8747 7.256 90.9787C6.696 90.0827 6.416 89.0827 6.416 87.9787C6.416 87.0987 6.6 86.2987 6.968 85.5787C7.336 84.8427 7.832 84.2667 8.456 83.8507L2.24 83.8507L2.24 79.7467L20 79.7467L20 83.8507L18.08 83.8507C18.72 84.2347 19.232 84.7867 19.616 85.5067C20 86.2107 20.192 87.0347 20.192 87.9787C20.192 89.0827 19.912 90.0827 19.352 90.9787C18.776 91.8747 17.968 92.5867 16.928 93.1147C15.872 93.6267 14.656 93.8827 13.28 93.8827ZM13.304 83.8507C12.28 83.8507 11.472 84.1387 10.88 84.7147C10.288 85.2747 9.992 85.9627 9.992 86.7787C9.992 87.5947 10.288 88.2907 10.88 88.8667C11.456 89.4267 12.256 89.7067 13.28 89.7067C14.304 89.7067 15.12 89.4267 15.728 88.8667C16.32 88.2907 16.616 87.5947 16.616 86.7787C16.616 85.9627 16.32 85.2747 15.728 84.7147C15.136 84.1387 14.328 83.8507 13.304 83.8507ZM6.608 63.5536L20 63.5536L20 67.6576L18.176 67.6576C18.768 68.0736 19.248 68.6416 19.616 69.3616C19.968 70.0656 20.144 70.8496 20.144 71.7136C20.144 72.7376 19.92 73.6416 19.472 74.4256C19.008 75.2096 18.344 75.8176 17.48 76.2496C16.616 76.6816 15.6 76.8976 14.432 76.8976L6.608 76.8976L6.608 72.8176L13.88 72.8176C14.776 72.8176 15.472 72.5856 15.968 72.1216C16.464 71.6576 16.712 71.0336 16.712 70.2496C16.712 69.4496 16.464 68.8176 15.968 68.3536C15.472 67.8896 14.776 67.6576 13.88 67.6576L6.608 67.6576L6.608 63.5536ZM20 52.4217L14.384 56.5017L20 56.5017L20 60.6057L2.24 60.6057L2.24 56.5017L12.056 56.5017L6.608 52.4457L6.608 47.3817L13.328 52.9497L20 47.3337L20 52.4217ZM16.52 38.3058L20 38.3058L20 40.3938C20 41.8818 19.64 43.0418 18.92 43.8738C18.184 44.7058 16.992 45.1218 15.344 45.1218L10.016 45.1218L10.016 46.7538L6.608 46.7538L6.608 45.1218L3.344 45.1218L3.344 41.0178L6.608 41.0178L6.608 38.3298L10.016 38.3298L10.016 41.0178L15.392 41.0178C15.792 41.0178 16.08 40.9218 16.256 40.7298C16.432 40.5378 16.52 40.2178 16.52 39.7698L16.52 38.3058ZM5.21599 33.9558C5.21599 34.6758 5.008 35.2678 4.592 35.7318C4.16 36.1798 3.632 36.4038 3.008 36.4038C2.368 36.4038 1.84 36.1798 1.42399 35.7318C0.991995 35.2678 0.775995 34.6758 0.775995 33.9558C0.775995 33.2518 0.991995 32.6758 1.42399 32.2278C1.84 31.7638 2.368 31.5318 3.008 31.5318C3.632 31.5318 4.16 31.7638 4.592 32.2278C5.00799 32.6758 5.21599 33.2518 5.21599 33.9558ZM6.608 31.9158L20 31.9158L20 36.0198L6.608 36.0198L6.608 31.9158ZM20.192 22.8457C20.192 24.1577 19.912 25.3417 19.352 26.3977C18.792 27.4377 17.992 28.2617 16.952 28.8697C15.912 29.4617 14.696 29.7577 13.304 29.7577C11.928 29.7577 10.72 29.4537 9.68 28.8457C8.624 28.2377 7.816 27.4057 7.256 26.3497C6.69599 25.2937 6.41599 24.1097 6.41599 22.7977C6.41599 21.4857 6.69599 20.3017 7.25599 19.2457C7.81599 18.1897 8.62399 17.3577 9.68 16.7497C10.72 16.1417 11.928 15.8377 13.304 15.8377C14.68 15.8377 15.896 16.1497 16.952 16.7737C17.992 17.3817 18.792 18.2217 19.352 19.2937C19.912 20.3497 20.192 21.5337 20.192 22.8457ZM16.64 22.8457C16.64 22.0617 16.352 21.3977 15.776 20.8537C15.2 20.2937 14.376 20.0137 13.304 20.0137C12.232 20.0137 11.408 20.2857 10.832 20.8297C10.256 21.3577 9.968 22.0137 9.968 22.7977C9.968 23.5977 10.256 24.2617 10.832 24.7897C11.392 25.3177 12.216 25.5817 13.304 25.5817C14.376 25.5817 15.2 25.3257 15.776 24.8137C16.352 24.2857 16.64 23.6297 16.64 22.8457ZM6.46399 5.50044C6.46399 3.93244 6.97599 2.68444 7.99999 1.75644C9.00799 0.812436 10.4 0.340436 12.176 0.340436L20 0.340435L20 4.42044L12.728 4.42044C11.832 4.42044 11.136 4.65244 10.64 5.11644C10.144 5.58044 9.89599 6.20444 9.89599 6.98844C9.89599 7.77244 10.144 8.39644 10.64 8.86044C11.136 9.32444 11.832 9.55644 12.728 9.55644L20 9.55644L20 13.6604L6.60799 13.6604L6.60799 9.55644L8.38399 9.55644C7.79199 9.14044 7.32799 8.58044 6.99199 7.87644C6.63999 7.17244 6.46399 6.38044 6.46399 5.50044Z" fill="#232D32"/>
</svg>
