<svg width="25" height="172" viewBox="0 0 25 172" fill="none" xmlns="http://www.w3.org/2000/svg">
<path d="M1.152 165.2C1.152 163.424 1.504 161.872 2.208 160.544C2.912 159.216 3.904 158.192 5.184 157.472C6.448 156.736 7.912 156.368 9.576 156.368C11.224 156.368 12.688 156.736 13.968 157.472C15.248 158.192 16.24 159.224 16.944 160.568C17.648 161.896 18 163.44 18 165.2L18 171.512L1.152 171.512L1.152 165.2ZM14.448 165.464C14.448 163.912 14.024 162.704 13.176 161.84C12.328 160.976 11.128 160.544 9.576 160.544C8.024 160.544 6.816 160.976 5.952 161.84C5.088 162.704 4.656 163.912 4.656 165.464L4.656 167.408L14.448 167.408L14.448 165.464ZM11.28 154.89C9.904 154.89 8.696 154.634 7.656 154.122C6.616 153.594 5.816 152.882 5.256 151.986C4.696 151.09 4.416 150.09 4.416 148.986C4.416 148.042 4.608 147.218 4.992 146.514C5.376 145.794 5.88 145.242 6.504 144.858L4.608 144.858L4.608 140.754L18 140.754L18 144.858L16.104 144.858C16.728 145.258 17.232 145.818 17.616 146.538C18 147.242 18.192 148.066 18.192 149.01C18.192 150.098 17.912 151.09 17.352 151.986C16.776 152.882 15.968 153.594 14.928 154.122C13.872 154.634 12.656 154.89 11.28 154.89ZM11.304 144.858C10.28 144.858 9.472 145.146 8.88 145.722C8.288 146.282 7.992 146.97 7.992 147.786C7.992 148.602 8.288 149.298 8.88 149.874C9.456 150.434 10.256 150.714 11.28 150.714C12.304 150.714 13.12 150.434 13.728 149.874C14.32 149.298 14.616 148.602 14.616 147.786C14.616 146.97 14.32 146.282 13.728 145.722C13.136 145.146 12.328 144.858 11.304 144.858ZM14.52 130.321L18 130.321L18 132.409C18 133.897 17.64 135.057 16.92 135.889C16.184 136.721 14.992 137.137 13.344 137.137L8.016 137.137L8.016 138.769L4.608 138.769L4.608 137.137L1.344 137.137L1.344 133.033L4.608 133.033L4.608 130.345L8.016 130.345L8.016 133.033L13.392 133.033C13.792 133.033 14.08 132.937 14.256 132.745C14.432 132.553 14.52 132.233 14.52 131.785L14.52 130.321ZM11.088 115.411C11.472 115.411 11.872 115.435 12.288 115.483L12.288 124.771C13.12 124.707 13.76 124.443 14.208 123.979C14.64 123.499 14.856 122.915 14.856 122.227C14.856 121.203 14.424 120.491 13.56 120.091L13.56 115.723C14.44 115.947 15.232 116.355 15.936 116.947C16.64 117.523 17.192 118.251 17.592 119.131C17.992 120.011 18.192 120.995 18.192 122.083C18.192 123.395 17.912 124.563 17.352 125.587C16.792 126.611 15.992 127.411 14.952 127.987C13.912 128.563 12.696 128.851 11.304 128.851C9.912 128.851 8.696 128.571 7.656 128.011C6.616 127.435 5.816 126.635 5.256 125.611C4.696 124.587 4.416 123.411 4.416 122.083C4.416 120.787 4.688 119.635 5.232 118.627C5.776 117.619 6.552 116.835 7.56 116.275C8.568 115.699 9.744 115.411 11.088 115.411ZM10.008 119.611C9.304 119.611 8.744 119.851 8.328 120.331C7.912 120.811 7.704 121.411 7.704 122.131C7.704 122.819 7.904 123.403 8.304 123.883C8.704 124.347 9.272 124.635 10.008 124.747L10.008 119.611ZM4.464 105.086C4.464 103.518 4.976 102.27 6 101.342C7.008 100.398 8.4 99.9264 10.176 99.9264L18 99.9264L18 104.006L10.728 104.006C9.832 104.006 9.136 104.238 8.64 104.702C8.144 105.166 7.896 105.79 7.896 106.574C7.896 107.358 8.144 107.982 8.64 108.446C9.136 108.91 9.832 109.142 10.728 109.142L18 109.142L18 113.246L4.608 113.246L4.608 109.142L6.384 109.142C5.792 108.726 5.328 108.166 4.992 107.462C4.64 106.758 4.464 105.966 4.464 105.086ZM11.28 97.8905C9.904 97.8905 8.696 97.6345 7.656 97.1225C6.616 96.5945 5.816 95.8825 5.256 94.9865C4.696 94.0905 4.416 93.0905 4.416 91.9865C4.416 91.0425 4.608 90.2185 4.992 89.5145C5.376 88.7945 5.88 88.2425 6.504 87.8585L4.608 87.8585L4.608 83.7545L18 83.7545L18 87.8585L16.104 87.8585C16.728 88.2585 17.232 88.8185 17.616 89.5385C18 90.2425 18.192 91.0665 18.192 92.0105C18.192 93.0985 17.912 94.0905 17.352 94.9865C16.776 95.8825 15.968 96.5945 14.928 97.1225C13.872 97.6345 12.656 97.8905 11.28 97.8905ZM11.304 87.8585C10.28 87.8585 9.472 88.1465 8.88 88.7225C8.288 89.2825 7.992 89.9705 7.992 90.7865C7.992 91.6025 8.288 92.2985 8.88 92.8745C9.456 93.4345 10.256 93.7145 11.28 93.7145C12.304 93.7145 13.12 93.4345 13.728 92.8745C14.32 92.2985 14.616 91.6025 14.616 90.7865C14.616 89.9705 14.32 89.2825 13.728 88.7225C13.136 88.1465 12.328 87.8585 11.304 87.8585ZM4.464 72.6254C4.464 71.0574 4.976 69.8094 6 68.8814C7.008 67.9374 8.4 67.4654 10.176 67.4654L18 67.4654L18 71.5454L10.728 71.5454C9.832 71.5454 9.136 71.7774 8.64 72.2414C8.14399 72.7054 7.89599 73.3294 7.89599 74.1134C7.89599 74.8974 8.144 75.5214 8.64 75.9854C9.136 76.4494 9.832 76.6814 10.728 76.6814L18 76.6814L18 80.7854L4.608 80.7854L4.608 76.6814L6.384 76.6814C5.792 76.2654 5.32799 75.7054 4.99199 75.0014C4.64 74.2974 4.464 73.5054 4.464 72.6254ZM11.28 65.4296C9.90399 65.4296 8.69599 65.1736 7.65599 64.6616C6.61599 64.1336 5.81599 63.4216 5.25599 62.5256C4.69599 61.6296 4.41599 60.6296 4.41599 59.5256C4.41599 58.5816 4.60799 57.7576 4.99199 57.0536C5.37599 56.3336 5.87999 55.7816 6.50399 55.3976L4.60799 55.3976L4.60799 51.2936L18 51.2936L18 55.3976L16.104 55.3976C16.728 55.7976 17.232 56.3576 17.616 57.0776C18 57.7816 18.192 58.6056 18.192 59.5496C18.192 60.6376 17.912 61.6296 17.352 62.5256C16.776 63.4216 15.968 64.1336 14.928 64.6616C13.872 65.1736 12.656 65.4296 11.28 65.4296ZM11.304 55.3976C10.28 55.3976 9.47199 55.6856 8.87999 56.2616C8.28799 56.8216 7.99199 57.5096 7.99199 58.3256C7.99199 59.1416 8.28799 59.8376 8.87999 60.4136C9.45599 60.9736 10.256 61.2536 11.28 61.2536C12.304 61.2536 13.12 60.9736 13.728 60.4136C14.32 59.8376 14.616 59.1416 14.616 58.3256C14.616 57.5096 14.32 56.8216 13.728 56.2616C13.136 55.6856 12.328 55.3976 11.304 55.3976ZM0.239994 44.2205L18 44.2205L18 48.3245L0.239994 48.3245L0.239994 44.2205ZM4.60799 27.5664L24.36 35.9664L24.36 40.3824L17.544 37.3104L4.60799 42.7584L4.60799 38.1744L12.984 35.0784L4.60799 32.0064L4.60799 27.5664ZM18.192 20.6343C18.192 21.8023 17.992 22.8423 17.592 23.7543C17.192 24.6663 16.648 25.3863 15.96 25.9143C15.256 26.4423 14.472 26.7383 13.608 26.8023L13.608 22.7463C14.072 22.6983 14.448 22.4823 14.736 22.0983C15.024 21.7143 15.168 21.2423 15.168 20.6823C15.168 20.1703 15.072 19.7783 14.88 19.5063C14.672 19.2183 14.408 19.0743 14.088 19.0743C13.704 19.0743 13.424 19.2743 13.248 19.6743C13.056 20.0743 12.848 20.7223 12.624 21.6183C12.4 22.5783 12.168 23.3783 11.928 24.0183C11.672 24.6583 11.28 25.2103 10.752 25.6743C10.208 26.1383 9.47999 26.3703 8.56799 26.3703C7.79999 26.3703 7.10399 26.1623 6.47999 25.7463C5.83999 25.3143 5.33599 24.6903 4.96799 23.8743C4.59999 23.0423 4.41599 22.0583 4.41599 20.9223C4.41599 19.2423 4.83199 17.9223 5.66399 16.9623C6.49599 15.9863 7.59999 15.4263 8.97599 15.2823L8.97599 19.0743C8.51199 19.1383 8.14399 19.3463 7.87199 19.6983C7.59999 20.0343 7.46399 20.4823 7.46399 21.0423C7.46399 21.5223 7.55999 21.8903 7.75199 22.1463C7.92799 22.4023 8.17599 22.5303 8.49599 22.5303C8.87999 22.5303 9.16799 22.3303 9.35999 21.9303C9.55199 21.5143 9.74399 20.8743 9.93599 20.0103C10.192 19.0183 10.448 18.2103 10.704 17.5863C10.944 16.9623 11.344 16.4183 11.904 15.9543C12.448 15.4743 13.184 15.2263 14.112 15.2103C14.896 15.2103 15.6 15.4343 16.224 15.8823C16.832 16.3143 17.312 16.9463 17.664 17.7783C18.016 18.5943 18.192 19.5463 18.192 20.6343ZM11.088 0.0754992C11.472 0.0754992 11.872 0.0994989 12.288 0.147498L12.288 9.4355C13.12 9.3715 13.76 9.1075 14.208 8.6435C14.64 8.1635 14.856 7.5795 14.856 6.8915C14.856 5.8675 14.424 5.1555 13.56 4.7555L13.56 0.387498C14.44 0.611498 15.232 1.0195 15.936 1.6115C16.64 2.1875 17.192 2.9155 17.592 3.7955C17.992 4.6755 18.192 5.6595 18.192 6.7475C18.192 8.0595 17.912 9.2275 17.352 10.2515C16.792 11.2755 15.992 12.0755 14.952 12.6515C13.912 13.2275 12.696 13.5155 11.304 13.5155C9.91199 13.5155 8.69599 13.2355 7.65599 12.6755C6.61599 12.0995 5.81599 11.2995 5.25599 10.2755C4.69599 9.2515 4.41599 8.0755 4.41599 6.7475C4.41599 5.4515 4.68799 4.2995 5.23199 3.2915C5.77599 2.2835 6.55199 1.4995 7.55999 0.939498C8.56799 0.363499 9.74399 0.0754993 11.088 0.0754992ZM10.008 4.2755C9.30399 4.2755 8.74399 4.5155 8.32799 4.9955C7.91199 5.4755 7.70399 6.0755 7.70399 6.7955C7.70399 7.4835 7.90399 8.0675 8.30399 8.5475C8.70399 9.0115 9.27199 9.2995 10.008 9.4115L10.008 4.2755Z" fill="#232D32"/>
</svg>
