<svg width="19" height="175" viewBox="0 0 19 175" fill="none" xmlns="http://www.w3.org/2000/svg">
<path d="M1.152 170.48L11.232 170.48C12.24 170.48 13.016 170.232 13.56 169.736C14.104 169.24 14.376 168.512 14.376 167.552C14.376 166.592 14.104 165.856 13.56 165.344C13.016 164.832 12.24 164.576 11.232 164.576L1.152 164.576L1.152 160.472L11.208 160.472C12.712 160.472 13.984 160.792 15.024 161.432C16.064 162.072 16.848 162.936 17.376 164.024C17.904 165.096 18.168 166.296 18.168 167.624C18.168 168.952 17.912 170.144 17.4 171.2C16.872 172.24 16.088 173.064 15.048 173.672C13.992 174.28 12.712 174.584 11.208 174.584L1.152 174.584L1.152 170.48ZM4.464 140.502C4.464 138.838 4.968 137.518 5.976 136.542C6.984 135.55 8.384 135.054 10.176 135.054L18 135.054L18 139.134L10.728 139.134C9.864 139.134 9.2 139.366 8.736 139.83C8.256 140.278 8.016 140.902 8.016 141.702C8.016 142.502 8.256 143.134 8.736 143.598C9.2 144.046 9.864 144.27 10.728 144.27L18 144.27L18 148.35L10.728 148.35C9.864 148.35 9.2 148.582 8.736 149.046C8.256 149.494 8.016 150.118 8.016 150.918C8.016 151.718 8.256 152.35 8.736 152.814C9.2 153.262 9.864 153.486 10.728 153.486L18 153.486L18 157.59L4.608 157.59L4.608 153.486L6.288 153.486C5.728 153.07 5.288 152.526 4.968 151.854C4.632 151.182 4.464 150.422 4.464 149.574C4.464 148.566 4.68 147.67 5.112 146.886C5.544 146.086 6.16 145.462 6.96 145.014C6.224 144.55 5.624 143.918 5.16 143.118C4.696 142.318 4.464 141.446 4.464 140.502ZM4.608 112.96L18 116.584L18 121.12L9.312 123.232L18 125.416L18 129.928L4.608 133.576L4.608 129.472L14.184 127.576L4.608 125.32L4.608 120.976L14.136 118.696L4.608 116.824L4.608 112.96ZM11.088 98.7708C11.472 98.7708 11.872 98.7948 12.288 98.8428L12.288 108.131C13.12 108.067 13.76 107.803 14.208 107.339C14.64 106.859 14.856 106.275 14.856 105.587C14.856 104.563 14.424 103.851 13.56 103.451L13.56 99.0828C14.44 99.3068 15.232 99.7148 15.936 100.307C16.64 100.883 17.192 101.611 17.592 102.491C17.992 103.371 18.192 104.355 18.192 105.443C18.192 106.755 17.912 107.923 17.352 108.947C16.792 109.971 15.992 110.771 14.952 111.347C13.912 111.923 12.696 112.211 11.304 112.211C9.912 112.211 8.696 111.931 7.656 111.371C6.616 110.795 5.816 109.995 5.256 108.971C4.696 107.947 4.416 106.771 4.416 105.443C4.416 104.147 4.688 102.995 5.232 101.987C5.776 100.979 6.552 100.195 7.56 99.6348C8.568 99.0588 9.744 98.7708 11.088 98.7708ZM10.008 102.971C9.304 102.971 8.744 103.211 8.328 103.691C7.912 104.171 7.704 104.771 7.704 105.491C7.704 106.179 7.904 106.763 8.304 107.243C8.704 107.707 9.272 107.995 10.008 108.107L10.008 102.971ZM0.239996 92.5017L18 92.5017L18 96.6057L0.239996 96.6057L0.239996 92.5017ZM14.52 82.0636L18 82.0636L18 84.1516C18 85.6396 17.64 86.7996 16.92 87.6316C16.184 88.4636 14.992 88.8796 13.344 88.8796L8.016 88.8796L8.016 90.5116L4.608 90.5116L4.608 88.8796L1.344 88.8796L1.344 84.7756L4.608 84.7756L4.608 82.0876L8.016 82.0876L8.016 84.7756L13.392 84.7756C13.792 84.7756 14.08 84.6796 14.256 84.4876C14.432 84.2956 14.52 83.9756 14.52 83.5276L14.52 82.0636ZM18.192 74.3296C18.192 75.4976 17.992 76.5376 17.592 77.4496C17.192 78.3616 16.648 79.0816 15.96 79.6096C15.256 80.1376 14.472 80.4336 13.608 80.4976L13.608 76.4416C14.072 76.3936 14.448 76.1776 14.736 75.7936C15.024 75.4096 15.168 74.9376 15.168 74.3776C15.168 73.8656 15.072 73.4736 14.88 73.2016C14.672 72.9136 14.408 72.7696 14.088 72.7696C13.704 72.7696 13.424 72.9696 13.248 73.3696C13.056 73.7696 12.848 74.4176 12.624 75.3136C12.4 76.2736 12.168 77.0736 11.928 77.7136C11.672 78.3536 11.28 78.9056 10.752 79.3696C10.208 79.8336 9.48 80.0656 8.568 80.0656C7.8 80.0656 7.104 79.8576 6.48 79.4416C5.83999 79.0096 5.33599 78.3856 4.96799 77.5696C4.59999 76.7376 4.41599 75.7536 4.41599 74.6176C4.41599 72.9376 4.83199 71.6176 5.664 70.6576C6.496 69.6816 7.59999 69.1216 8.97599 68.9776L8.976 72.7696C8.51199 72.8336 8.14399 73.0416 7.872 73.3936C7.6 73.7296 7.464 74.1776 7.464 74.7376C7.464 75.2176 7.56 75.5856 7.752 75.8416C7.928 76.0976 8.176 76.2256 8.49599 76.2256C8.88 76.2256 9.168 76.0256 9.36 75.6256C9.552 75.2096 9.744 74.5696 9.93599 73.7056C10.192 72.7136 10.448 71.9056 10.704 71.2816C10.944 70.6576 11.344 70.1136 11.904 69.6496C12.448 69.1696 13.184 68.9216 14.112 68.9056C14.896 68.9056 15.6 69.1296 16.224 69.5776C16.832 70.0096 17.312 70.6416 17.664 71.4736C18.016 72.2896 18.192 73.2416 18.192 74.3296ZM11.304 67.2108C9.91199 67.2108 8.69599 66.9308 7.65599 66.3708C6.61599 65.7948 5.81599 65.0028 5.25599 63.9948C4.69599 62.9708 4.41599 61.8028 4.41599 60.4908C4.41599 58.8108 4.85599 57.4108 5.73599 56.2908C6.61599 55.1548 7.85599 54.4108 9.45599 54.0588L9.45599 58.4268C8.43199 58.7948 7.91999 59.5068 7.91999 60.5628C7.91999 61.3148 8.21599 61.9148 8.80799 62.3628C9.38399 62.8108 10.216 63.0348 11.304 63.0348C12.392 63.0348 13.232 62.8108 13.824 62.3628C14.4 61.9148 14.688 61.3148 14.688 60.5628C14.688 59.5068 14.176 58.7948 13.152 58.4268L13.152 54.0588C14.72 54.4108 15.952 55.1548 16.848 56.2908C17.744 57.4268 18.192 58.8268 18.192 60.4908C18.192 61.8028 17.912 62.9708 17.352 63.9948C16.792 65.0028 15.992 65.7948 14.952 66.3708C13.912 66.9308 12.696 67.2108 11.304 67.2108ZM4.46399 43.6316C4.46399 42.0956 4.97599 40.8636 5.99999 39.9356C7.00799 39.0076 8.39999 38.5436 10.176 38.5436L18 38.5436L18 42.6236L10.728 42.6236C9.83199 42.6236 9.13599 42.8556 8.63999 43.3196C8.14399 43.7836 7.89599 44.4076 7.89599 45.1916C7.89599 45.9756 8.14399 46.5996 8.63999 47.0636C9.13599 47.5276 9.83199 47.7596 10.728 47.7596L18 47.7596L18 51.8636L0.239994 51.8636L0.239994 47.7596L6.40799 47.7596C5.81599 47.3436 5.34399 46.7756 4.99199 46.0556C4.63999 45.3356 4.46399 44.5276 4.46399 43.6316ZM4.60799 22.4677L18 22.4677L18 26.5717L16.176 26.5717C16.768 26.9877 17.248 27.5557 17.616 28.2757C17.968 28.9797 18.144 29.7637 18.144 30.6277C18.144 31.6517 17.92 32.5557 17.472 33.3397C17.008 34.1237 16.344 34.7317 15.48 35.1637C14.616 35.5957 13.6 35.8117 12.432 35.8117L4.60799 35.8117L4.60799 31.7317L11.88 31.7317C12.776 31.7317 13.472 31.4997 13.968 31.0357C14.464 30.5717 14.712 29.9477 14.712 29.1637C14.712 28.3637 14.464 27.7317 13.968 27.2677C13.472 26.8037 12.776 26.5717 11.88 26.5717L4.60799 26.5717L4.60799 22.4677ZM14.52 12.0558L18 12.0558L18 14.1438C18 15.6318 17.64 16.7918 16.92 17.6238C16.184 18.4558 14.992 18.8718 13.344 18.8718L8.01599 18.8718L8.01599 20.5038L4.60799 20.5038L4.60799 18.8718L1.34399 18.8718L1.34399 14.7678L4.60799 14.7678L4.60799 12.0798L8.01599 12.0798L8.01599 14.7678L13.392 14.7678C13.792 14.7678 14.08 14.6718 14.256 14.4798C14.432 14.2878 14.52 13.9678 14.52 13.5198L14.52 12.0558ZM14.616 5.92981L14.616 0.121811L18 0.121811L18 10.5138L14.736 10.5138L7.99199 4.94581L7.99199 10.4658L4.60799 10.4658L4.60799 0.241811L7.87199 0.241811L14.616 5.92981Z" fill="#232D32"/>
</svg>
